<svg width="1050" height="210" viewBox="0 0 1050 210" xmlns="http://www.w3.org/2000/svg"><rect width="1050" height="210" fill="#FCFBFA"/>
<g transform="translate(57.0,30)"><path d="M48,12 L78,24 V50 C78,70 64,82 48,88 C32,82 18,70 18,50 V24 Z" fill="none" stroke="#EE4A0E" stroke-width="5" stroke-linecap="round" stroke-linejoin="round"/><line x1="48.0" y1="74.0" x2="48.0" y2="48.0" stroke="#EE4A0E" stroke-width="5" stroke-linecap="round"/><path d="M 48.0,60.0 C 48.2,54.0 42.4,49.0 38.4,48.5 C 38.1,52.6 42.0,59.1 48.0,60.0 Z" fill="none" stroke="#EE4A0E" stroke-width="5" stroke-linecap="round" stroke-linejoin="round"/><path d="M 48.0,60.0 C 54.0,59.1 57.9,52.6 57.6,48.5 C 53.6,49.0 47.8,54.0 48.0,60.0 Z" fill="none" stroke="#EE4A0E" stroke-width="5" stroke-linecap="round" stroke-linejoin="round"/></g>
<text x="105.0" y="186" text-anchor="middle" font-family="Arial" font-size="15" fill="#3C352D">СЗР · Защита</text>
<g transform="translate(267.0,30)"><path d="M48,66 C46,54 42,44 39,34" fill="none" stroke="#EE4A0E" stroke-width="5" stroke-linecap="round" stroke-linejoin="round"/><line x1="48.0" y1="66.0" x2="48.0" y2="32.0" stroke="#EE4A0E" stroke-width="5" stroke-linecap="round"/><path d="M48,66 C50,54 54,44 57,34" fill="none" stroke="#EE4A0E" stroke-width="5" stroke-linecap="round" stroke-linejoin="round"/><circle cx="48" cy="48" r="30" fill="none" stroke="#EE4A0E" stroke-width="5"/><line x1="28.5" y1="67.5" x2="67.5" y2="28.5" stroke="#EE4A0E" stroke-width="5" stroke-linecap="round"/></g>
<text x="315.0" y="186" text-anchor="middle" font-family="Arial" font-size="15" fill="#3C352D">Гербицид</text>
<g transform="translate(477.0,30)"><path d="M34,52 C34,41 41,34 48,34 C55,34 62,41 62,52 Z" fill="none" stroke="#EE4A0E" stroke-width="5" stroke-linecap="round" stroke-linejoin="round"/><line x1="37.0" y1="52.0" x2="59.0" y2="52.0" stroke="#EE4A0E" stroke-width="5" stroke-linecap="round"/><path d="M43,52 L43,62 a5,5 0 0 0 10,0 L53,52" fill="none" stroke="#EE4A0E" stroke-width="5" stroke-linecap="round" stroke-linejoin="round"/><circle cx="48" cy="48" r="30" fill="none" stroke="#EE4A0E" stroke-width="5"/><line x1="28.5" y1="67.5" x2="67.5" y2="28.5" stroke="#EE4A0E" stroke-width="5" stroke-linecap="round"/></g>
<text x="525.0" y="186" text-anchor="middle" font-family="Arial" font-size="15" fill="#3C352D">Фунгицид</text>
<g transform="translate(687.0,30)"><ellipse cx="48" cy="53" rx="11" ry="13" fill="none" stroke="#EE4A0E" stroke-width="5" transform="rotate(0 48 53)"/><circle cx="48" cy="37" r="5" fill="none" stroke="#EE4A0E" stroke-width="5"/><line x1="48.0" y1="44.0" x2="48.0" y2="64.0" stroke="#EE4A0E" stroke-width="5" stroke-linecap="round"/><line x1="38.0" y1="48.0" x2="31.0" y2="43.0" stroke="#EE4A0E" stroke-width="3.5" stroke-linecap="round"/><line x1="38.0" y1="54.0" x2="30.0" y2="54.0" stroke="#EE4A0E" stroke-width="3.5" stroke-linecap="round"/><line x1="38.0" y1="60.0" x2="31.0" y2="65.0" stroke="#EE4A0E" stroke-width="3.5" stroke-linecap="round"/><line x1="58.0" y1="48.0" x2="65.0" y2="43.0" stroke="#EE4A0E" stroke-width="3.5" stroke-linecap="round"/><line x1="58.0" y1="54.0" x2="66.0" y2="54.0" stroke="#EE4A0E" stroke-width="3.5" stroke-linecap="round"/><line x1="58.0" y1="60.0" x2="65.0" y2="65.0" stroke="#EE4A0E" stroke-width="3.5" stroke-linecap="round"/><line x1="45.0" y1="34.0" x2="41.0" y2="28.0" stroke="#EE4A0E" stroke-width="3.5" stroke-linecap="round"/><line x1="51.0" y1="34.0" x2="55.0" y2="28.0" stroke="#EE4A0E" stroke-width="3.5" stroke-linecap="round"/><circle cx="48" cy="48" r="30" fill="none" stroke="#EE4A0E" stroke-width="5"/><line x1="28.5" y1="67.5" x2="67.5" y2="28.5" stroke="#EE4A0E" stroke-width="5" stroke-linecap="round"/></g>
<text x="735.0" y="186" text-anchor="middle" font-family="Arial" font-size="15" fill="#3C352D">Инсектицид</text>
<g transform="translate(897.0,30)"><ellipse cx="48" cy="62" rx="16" ry="9" fill="none" stroke="#EE4A0E" stroke-width="5" transform="rotate(-12 48 62)"/><path d="M34,62 Q48,55 62,62" fill="none" stroke="#EE4A0E" stroke-width="5" stroke-linecap="round" stroke-linejoin="round"/><path d="M48,28 C52,36 57,43 57,47 a9,9 0 1 1 -18,0 C39,43 44,36 48,28 Z" fill="none" stroke="#EE4A0E" stroke-width="5" stroke-linecap="round" stroke-linejoin="round"/><line x1="40.0" y1="50.0" x2="44.0" y2="54.0" stroke="#EE4A0E" stroke-width="3.5" stroke-linecap="round"/><line x1="56.0" y1="50.0" x2="52.0" y2="54.0" stroke="#EE4A0E" stroke-width="3.5" stroke-linecap="round"/></g>
<text x="945.0" y="186" text-anchor="middle" font-family="Arial" font-size="15" fill="#3C352D">Протравитель</text>
</svg>